<?xml version="1.0" encoding="utf-8"?>
<!-- Generator: Adobe Illustrator 22.0.1, SVG Export Plug-In . SVG Version: 6.00 Build 0)  -->
<svg version="1.1" id="logo" xmlns="http://www.w3.org/2000/svg" xmlns:xlink="http://www.w3.org/1999/xlink" x="0px"
	 y="0px" viewBox="0 0 116 40" style="enable-background:new 0 0 116 40;" xml:space="preserve">
<style type="text/css">
	.st0{fill:#111111;}
</style>
<g>
	<path class="st0" d="M17.7,24.7V40H11V24.7L1,0h7.3l6,17.9l0.2-0.1L20.6,0h7.2L17.7,24.7z"/>
	<path class="st0" d="M49.1,40L38.4,20.6h-0.2V40h-6.8V0h6.8v17.3h0.2L48.6,0h7.6L44.5,18.4L57,40H49.1z"/>
	<path class="st0" d="M86.2,20.1c0,6.3-1.3,11.2-4,14.7c-2.7,3.5-6.6,5.2-11.7,5.2h-10V0h10.1c5.1,0,9,1.8,11.7,5.3
		C84.9,8.8,86.2,13.7,86.2,20.1z M79.4,20.1c0-2.4-0.2-4.4-0.7-6.2c-0.4-1.8-1-3.2-1.8-4.4c-0.8-1.2-1.7-2-2.8-2.6
		c-1.1-0.6-2.3-0.9-3.6-0.9h-3.2v28.1h3.2c1.3,0,2.5-0.3,3.6-0.9c1.1-0.6,2-1.5,2.8-2.6c0.8-1.2,1.4-2.6,1.8-4.4
		C79.2,24.4,79.4,22.4,79.4,20.1z"/>
	<path class="st0" d="M107.1,40l-6.2-17.1h-3.8V40h-6.6V0h11.4c1.7,0,3.2,0.2,4.6,0.6c1.4,0.4,2.6,1.1,3.6,2.1
		c1,0.9,1.8,2.1,2.3,3.6c0.6,1.4,0.8,3.1,0.8,5.1c0,1.5-0.2,2.9-0.6,4.1c-0.4,1.2-0.9,2.2-1.5,3c-0.6,0.8-1.3,1.5-2,2
		c-0.7,0.5-1.5,0.9-2.2,1l7.2,18.4H107.1z M106.6,11.8c0-1.2-0.2-2.2-0.5-3c-0.3-0.8-0.8-1.4-1.3-1.9c-0.5-0.5-1.2-0.8-1.8-1
		c-0.7-0.2-1.4-0.3-2-0.3h-3.8V18h3.8c1.7,0,3-0.5,4.1-1.6C106.1,15.4,106.6,13.8,106.6,11.8z"/>
</g>
</svg>
